<svg width="681" height="280" viewBox="0 0 681 280" fill="none" xmlns="http://www.w3.org/2000/svg">
<path fill-rule="evenodd" clip-rule="evenodd" d="M464.024 50.7709C466.177 51.023 468.255 51.7221 470.123 52.8237C473.905 54.4944 476.63 55.3297 478.299 55.3297C483.186 55.3297 487.075 52.4638 489.924 46.7454L484.238 42C482.228 45.2125 480.363 46.8387 478.699 46.8387C477.806 46.8387 475.796 46.0522 472.693 44.4527C470.21 43.0735 467.445 42.2802 464.61 42.1333C463.661 42.1253 462.716 42.2463 461.8 42.4932C460.889 42.7112 460.03 43.1051 459.27 43.6529C458.384 44.2129 457.578 44.8899 456.873 45.6657C456.001 46.5997 455.199 47.5978 454.476 48.6515L453.144 50.491L459.004 55.463C460.655 52.3572 462.319 50.8109 463.944 50.8109L464.024 50.7709ZM404.672 137.254H414.167V69.7924H404.672V137.254ZM355.801 69.7924H346.319V137.254H380.583V127.923H355.801V69.7924ZM240.134 69.7924L215.178 120.685L189.957 69.7924H186.654L176.96 137.254H186.282L192.114 94.4791L213.341 137.254H216.91L237.883 94.8256L243.742 137.254H253.17L243.463 69.7924H240.134ZM462.186 106.782L470.775 88.6007L479.338 106.782H462.186ZM472.586 69.7924H469.057L437.204 137.254H447.764L457.778 116.073H483.586L493.693 137.254H504L472.586 69.7924ZM280.416 137.254H320.112V127.923H289.937V105.649H320.112V96.3186H289.937V79.1632H320.379V69.8324H280.429L280.416 137.254ZM179.41 213.273H177V237.4H179.41V213.273ZM187.32 213.273L203.353 231.762V213.273H205.737V237.4H205.191L189.278 219.125V237.4H186.788V213.273H187.32ZM211.05 215.633H216.43V237.4H218.88V215.633H224.26V213.273H211.05V215.633ZM243.303 237.4H229.587V213.273H243.409V215.633H231.997V223.191H243.303V225.55H231.997V235.041H243.303V237.4ZM261.054 225.417C262.149 224.953 263.078 224.168 263.717 223.164C264.342 222.118 264.66 220.917 264.636 219.698C264.694 218.247 264.22 216.825 263.304 215.699C262.416 214.619 261.185 213.875 259.815 213.593C258.019 213.307 256.2 213.195 254.382 213.26H249.575V237.387H251.985V226.27H253.317L261.986 237.467H264.969L256.3 226.27C257.925 226.304 259.541 226.014 261.054 225.417ZM251.959 223.831V215.606H256.207C257.403 215.546 258.601 215.69 259.749 216.033C260.46 216.317 261.065 216.815 261.48 217.459C261.916 218.108 262.144 218.876 262.132 219.658C262.145 220.458 261.917 221.242 261.48 221.911C261.061 222.587 260.428 223.103 259.682 223.377C258.529 223.742 257.321 223.9 256.113 223.844L251.959 223.831ZM272.173 213.273L288.206 231.762V213.273H290.59V237.4H290.044L274.131 219.125V237.4H271.64V213.273H272.173ZM307.555 213.273L296.169 237.4H298.833L302.588 229.402H312.961L316.757 237.4H319.42L308.181 213.273H307.555ZM303.707 227.136L307.848 218.405L311.949 227.136H303.707ZM327.943 215.633H322.576V213.273H335.773V215.633H330.406V237.4H327.943V215.633ZM343.829 213.273H341.419V237.4H343.829V213.273ZM356.4 214.353C358.308 213.243 360.478 212.663 362.685 212.674C364.38 212.629 366.066 212.93 367.641 213.557C369.216 214.185 370.647 215.127 371.847 216.326C373.047 217.491 373.995 218.891 374.629 220.439C375.264 221.988 375.573 223.65 375.536 225.323C375.543 227.844 374.802 230.31 373.407 232.408C372.011 234.506 370.025 236.142 367.699 237.108C365.373 238.073 362.812 238.325 360.343 237.832C357.874 237.338 355.607 236.12 353.83 234.334C352.638 233.185 351.696 231.803 351.061 230.273C350.426 228.744 350.113 227.099 350.141 225.443C350.126 223.183 350.705 220.958 351.819 218.992C352.9 217.06 354.483 215.457 356.4 214.353ZM367.985 234.294C369.544 233.418 370.833 232.132 371.714 230.575C372.613 228.959 373.068 227.133 373.032 225.283C373.071 223.474 372.617 221.687 371.718 220.116C370.82 218.545 369.511 217.249 367.932 216.366C366.369 215.45 364.59 214.966 362.779 214.966C360.992 214.966 359.239 215.45 357.705 216.366C356.143 217.26 354.851 218.559 353.963 220.125C353.065 221.733 352.606 223.548 352.631 225.39C352.623 226.731 352.879 228.061 353.386 229.303C353.892 230.544 354.639 231.673 355.584 232.625C356.528 233.576 357.651 234.332 358.888 234.847C360.125 235.362 361.452 235.627 362.792 235.627C364.611 235.653 366.403 235.192 367.985 234.294ZM398.8 231.762L382.753 213.273H382.234V237.4H384.724V219.125L400.624 237.4H401.17V213.273H398.8V231.762ZM406.75 237.4L418.135 213.273H418.734L429.974 237.4H427.35L423.555 229.402H413.168L409.413 237.4H406.75ZM418.428 218.405L414.3 227.136H422.543L418.428 218.405ZM437.95 213.273H435.553V237.4H447.232V235.067H437.95V213.273ZM286.763 183.702C287.167 184.017 287.646 184.39 288.206 184.828L288.166 184.934C289.79 186.041 291.205 187.427 292.348 189.027C293.081 190.085 293.484 191.338 293.506 192.626C293.506 193.477 293.332 194.319 292.996 195.101C292.659 195.882 292.167 196.587 291.549 197.171C290.928 197.793 290.188 198.282 289.373 198.61C288.558 198.938 287.686 199.097 286.808 199.077C285.424 199.093 284.069 198.689 282.919 197.918C281.539 196.904 280.428 195.568 279.684 194.025L281.788 192.692C283.199 195.252 284.784 196.585 286.568 196.585C287.336 196.597 288.093 196.409 288.765 196.038C289.408 195.695 289.949 195.189 290.337 194.572C290.674 193.969 290.853 193.29 290.856 192.599C290.835 191.776 290.56 190.98 290.07 190.32C288.93 188.866 287.584 187.586 286.075 186.521C284.738 185.576 283.514 184.48 282.427 183.255C281.61 182.203 281.17 180.908 281.175 179.576C281.159 178.575 281.417 177.588 281.921 176.723C282.407 175.865 283.122 175.16 283.985 174.684C284.888 174.194 285.901 173.942 286.928 173.951C288.024 173.953 289.102 174.238 290.057 174.777C291.268 175.595 292.308 176.641 293.12 177.856L291.109 179.416V179.349C290.508 178.449 289.75 177.663 288.872 177.03C288.278 176.67 287.596 176.481 286.901 176.483C286.482 176.465 286.063 176.53 285.669 176.677C285.276 176.823 284.916 177.048 284.611 177.337C284.327 177.604 284.103 177.929 283.953 178.29C283.804 178.651 283.733 179.039 283.745 179.429C283.746 179.934 283.851 180.433 284.051 180.896C284.331 181.48 284.714 182.008 285.183 182.455C285.425 182.661 285.936 183.059 286.763 183.702ZM265.408 174.591H267.898V196.065H276.887V198.491H265.408V174.591ZM259.789 198.491H246.352L246.392 174.484H259.962V176.95H248.869V184.361H259.869V186.827H248.869V196.025H259.789V198.491ZM233.742 176.95H228.535V174.484H241.479V176.95H236.285V198.384H233.742V176.95ZM217.296 195.252C218.807 194.39 220.055 193.132 220.905 191.613V191.559C221.782 189.987 222.241 188.215 222.236 186.414C222.246 184.638 221.787 182.89 220.905 181.349C220.021 179.859 218.769 178.623 217.269 177.759C215.769 176.895 214.072 176.433 212.342 176.417C210.618 176.411 208.925 176.871 207.442 177.75C205.93 178.634 204.68 179.903 203.819 181.429C202.937 183.004 202.478 184.781 202.488 186.587C202.463 187.906 202.706 189.216 203.203 190.437C203.699 191.659 204.439 192.766 205.377 193.692C206.268 194.628 207.344 195.369 208.536 195.867C209.728 196.365 211.011 196.609 212.302 196.585C214.056 196.597 215.781 196.136 217.296 195.252ZM206.007 175.561C207.882 174.458 210.021 173.883 212.196 173.897L212.169 173.924C213.827 173.874 215.477 174.17 217.015 174.792C218.553 175.414 219.946 176.348 221.104 177.536C223.415 179.924 224.707 183.117 224.707 186.441C224.707 189.764 223.415 192.958 221.104 195.345C218.766 197.675 215.601 198.982 212.302 198.982C209.003 198.982 205.838 197.675 203.5 195.345C202.332 194.199 201.41 192.827 200.792 191.312C200.174 189.796 199.872 188.17 199.904 186.534C199.881 184.303 200.446 182.105 201.542 180.162C202.589 178.254 204.132 176.664 206.007 175.561ZM179.49 184.481H191.289L191.222 174.484H193.699V198.411H191.222V186.947H179.45V198.411H176.96V174.511H179.49V184.481Z" fill="#918981"/>
</svg>
