<svg width="46" height="46" viewBox="0 0 46 46" fill="none" xmlns="http://www.w3.org/2000/svg">
<path d="M22.0714 16.5C22.0714 18.3572 19.7849 21.1429 16.9643 21.1429C14.1437 21.1429 11.8571 20.2143 11.8571 16.5C11.8571 12.7857 14.1437 11.8572 16.9643 11.8572C19.7849 11.8572 22.0714 14.6429 22.0714 16.5Z" stroke="#252525" stroke-linecap="round" stroke-linejoin="round"/>
<path d="M18.3571 16.0358V16.9643" stroke="#252525" stroke-linecap="round" stroke-linejoin="round"/>
<path d="M27.6429 22.5358V23.4643" stroke="#252525" stroke-linecap="round" stroke-linejoin="round"/>
<path d="M18.3571 29.0358V29.9643" stroke="#252525" stroke-linecap="round" stroke-linejoin="round"/>
<path d="M22.0714 29.5C22.0714 31.3572 19.7849 34.1429 16.9643 34.1429C14.1437 34.1429 11.8571 33.2143 11.8571 29.5C11.8571 25.7857 14.1437 24.8572 16.9643 24.8572C19.7849 24.8572 22.0714 27.6429 22.0714 29.5Z" stroke="#252525" stroke-linecap="round" stroke-linejoin="round"/>
<path d="M23.9286 23C23.9286 24.8572 26.2151 27.6429 29.0357 27.6429C31.8564 27.6429 34.1429 26.7143 34.1429 23C34.1429 19.2857 31.8564 18.3572 29.0357 18.3572C26.2151 18.3572 23.9286 21.1429 23.9286 23Z" stroke="#252525" stroke-linecap="round" stroke-linejoin="round"/>
</svg>
