<svg width="46" height="46" viewBox="0 0 46 46" fill="none" xmlns="http://www.w3.org/2000/svg">
<g clip-path="url(#clip0_1414_371)">
<path d="M18.3249 19.7301L12.0265 24.8826C10.821 26.0881 10.1437 27.7232 10.1437 29.428C10.1437 31.1329 10.821 32.768 12.0265 33.9735C13.2321 35.179 14.8671 35.8563 16.572 35.8563C18.2769 35.8563 19.9119 35.179 21.1174 33.9735L26.4141 27.7612" stroke="#252525" stroke-linecap="round" stroke-linejoin="round"/>
<path d="M31.0032 23.6931C31.368 24.1098 31.8826 24.3656 32.435 24.405C32.9875 24.4444 33.5331 24.2641 33.9533 23.9033C34.3142 23.4829 34.4945 22.9371 34.4551 22.3844C34.4158 21.8318 34.1599 21.317 33.7432 20.952C33.5062 20.715 33.0221 20.2153 33.0221 20.2153C33.3097 20.3339 33.6097 20.4197 33.9165 20.4713C34.1779 20.4997 34.4424 20.4691 34.6905 20.3819C34.9386 20.2946 35.164 20.1528 35.35 19.9669C35.5361 19.7811 35.6781 19.5559 35.7657 19.3079C35.8533 19.0599 35.8841 18.7954 35.856 18.534C35.8008 17.9597 35.5475 17.4225 35.1396 17.0146C34.7316 16.6066 34.1945 16.3533 33.6202 16.2981C33.3072 16.2758 32.6577 16.2165 32.6577 16.2165C32.9166 16.1071 33.1596 15.963 33.3799 15.7883C33.7405 15.3678 33.9207 14.8219 33.8811 14.2692C33.8415 13.7166 33.5855 13.2019 33.1686 12.837C32.8037 12.4201 32.289 12.1641 31.7364 12.1245C31.1837 12.0849 30.6378 12.2651 30.2173 12.6258C30.0127 12.8315 29.5767 13.2484 29.5767 13.2484C29.6568 12.9675 29.7007 12.6775 29.7075 12.3854C29.6523 11.8111 29.399 11.274 28.991 10.866C28.5831 10.4581 28.0459 10.2048 27.4717 10.1496C27.2104 10.1215 26.9461 10.1524 26.6983 10.2398C26.4505 10.3273 26.2255 10.4691 26.0396 10.6549C25.8538 10.8407 25.712 11.0658 25.6245 11.3136C25.5371 11.5614 25.5063 11.8256 25.5343 12.0869C25.5567 12.3999 25.5902 13.0472 25.5902 13.0472C25.4397 12.7656 25.2599 12.5006 25.0536 12.2569C24.6886 11.8401 24.1738 11.5842 23.6212 11.5449C23.0686 11.5055 22.5227 11.6859 22.1023 12.0467C21.7416 12.4669 21.5613 13.0126 21.6006 13.565C21.64 14.1174 21.8958 14.632 22.3125 14.9969C22.5389 15.2252 22.8073 15.4078 23.1028 15.5346C23.1028 15.5346 22.4567 15.501 22.1426 15.4787C21.8808 15.4497 21.616 15.4799 21.3674 15.5669C21.1189 15.654 20.8931 15.7957 20.7067 15.9816C20.5202 16.1675 20.3779 16.3929 20.2901 16.6412C20.2023 16.8894 20.1714 17.1542 20.1996 17.416C20.255 17.9902 20.5084 18.5273 20.9163 18.9352C21.3242 19.3431 21.8613 19.5964 22.4354 19.6519C22.7275 19.6451 23.0175 19.6011 23.2985 19.5211C23.2985 19.5211 22.8815 19.9559 22.6758 20.1616C22.3156 20.5823 22.1359 21.128 22.1756 21.6804C22.2154 22.2327 22.4715 22.7471 22.8882 23.1118C23.2531 23.5287 23.7678 23.7848 24.3204 23.8244C24.873 23.8639 25.4189 23.6838 25.8395 23.3231C26.0148 23.1031 26.1593 22.8601 26.2688 22.6009C26.2688 22.6009 26.3269 23.2504 26.3493 23.5635C26.4047 24.1376 26.6581 24.6747 27.066 25.0826C27.4739 25.4905 28.0109 25.7439 28.5851 25.7993C28.8464 25.8272 29.1107 25.7962 29.3585 25.7086C29.6063 25.621 29.8314 25.479 30.0171 25.2932C30.2029 25.1073 30.3447 24.8821 30.4322 24.6343C30.5196 24.3864 30.5505 24.1221 30.5225 23.8608C30.4712 23.5541 30.3857 23.2541 30.2676 22.9665C30.2676 22.9665 30.765 23.455 31.0032 23.6931Z" stroke="#252525" stroke-linecap="round" stroke-linejoin="round"/>
<path d="M21.5948 13.5189C21.3524 13.0881 20.974 12.7498 20.5189 12.5569C20.0638 12.3639 19.5576 12.3272 19.0794 12.4526C18.6012 12.5779 18.1781 12.8581 17.8761 13.2495C17.5741 13.6409 17.4104 14.1213 17.4104 14.6156V14.686C16.883 14.8216 16.4232 15.1451 16.1173 15.5956C15.8115 16.0462 15.6805 16.5929 15.7491 17.1331C15.8178 17.6733 16.0812 18.17 16.49 18.5298C16.8987 18.8896 17.4248 19.0878 17.9694 19.0873H18.0398C18.4557 20.7082 20.6423 21.6182 22.4142 19.635" stroke="#252525" stroke-linecap="round" stroke-linejoin="round"/>
<path d="M32.4811 24.4052C32.9119 24.6477 33.2502 25.026 33.4431 25.4811C33.636 25.9362 33.6727 26.4425 33.5474 26.9206C33.4221 27.3988 33.1418 27.8219 32.7505 28.1239C32.3591 28.4259 31.8787 28.5897 31.3844 28.5896H31.314C31.1783 29.117 30.8549 29.5768 30.4044 29.8827C29.9538 30.1886 29.4071 30.3195 28.8669 30.2509C28.3266 30.1823 27.83 29.9189 27.4702 29.5101C27.1104 29.1013 26.9122 28.5752 26.9127 28.0307V27.9602C25.2917 27.5455 24.3627 25.3365 26.3459 23.5646" stroke="#252525" stroke-linecap="round" stroke-linejoin="round"/>
<path d="M25.3677 25.0268C25.3677 25.0268 15.9683 37.9153 12.0265 33.9701C8.08476 30.025 20.9699 20.6289 20.9699 20.6289" stroke="#252525" stroke-linecap="round" stroke-linejoin="round"/>
</g>
<defs>
<clipPath id="clip0_1414_371">
<rect width="28" height="28" fill="white" transform="translate(9 9)"/>
</clipPath>
</defs>
</svg>
