<svg width="46" height="46" viewBox="0 0 46 46" fill="none" xmlns="http://www.w3.org/2000/svg">
<path d="M35.0714 18.3572C35.0714 14.2545 31.7455 10.9286 27.6429 10.9286C24.2391 10.9286 21.3701 13.2266 20.4913 16.3452C20.1898 17.415 19.2317 18.2837 18.1321 18.4462C14.1581 19.0336 10.9286 22.5112 10.9286 26.7143C10.9286 31.3299 14.6702 35.0714 19.2857 35.0714C23.4889 35.0714 26.9664 31.8419 27.5538 27.8679C27.7163 26.7684 28.585 25.8102 29.6549 25.5088C32.7734 24.63 35.0714 21.761 35.0714 18.3572Z" stroke="#252525" stroke-linecap="round" stroke-linejoin="round"/>
<path d="M18.8215 30.4286C18.565 30.4286 18.3572 30.2208 18.3572 29.9643C18.3572 29.7078 18.565 29.5 18.8215 29.5" stroke="#252525" stroke-linecap="round" stroke-linejoin="round"/>
<path d="M18.8215 30.4286C19.0779 30.4286 19.2858 30.2208 19.2858 29.9643C19.2858 29.7078 19.0779 29.5 18.8215 29.5" stroke="#252525" stroke-linecap="round" stroke-linejoin="round"/>
<path d="M18.8215 25.7857C18.565 25.7857 18.3572 25.5779 18.3572 25.3215C18.3572 25.065 18.565 24.8572 18.8215 24.8572" stroke="#252525" stroke-linecap="round" stroke-linejoin="round"/>
<path d="M18.8215 25.7857C19.0779 25.7857 19.2858 25.5779 19.2858 25.3215C19.2858 25.065 19.0779 24.8572 18.8215 24.8572" stroke="#252525" stroke-linecap="round" stroke-linejoin="round"/>
<path d="M23.4643 25.7857C23.2079 25.7857 23 25.5779 23 25.3215C23 25.065 23.2079 24.8572 23.4643 24.8572" stroke="#252525" stroke-linecap="round" stroke-linejoin="round"/>
<path d="M23.4643 25.7857C23.7207 25.7857 23.9286 25.5779 23.9286 25.3215C23.9286 25.065 23.7207 24.8572 23.4643 24.8572" stroke="#252525" stroke-linecap="round" stroke-linejoin="round"/>
<path d="M29.0358 20.2143C28.7793 20.2143 28.5715 20.0065 28.5715 19.7501C28.5715 19.4936 28.7793 19.2858 29.0358 19.2858" stroke="#252525" stroke-linecap="round" stroke-linejoin="round"/>
<path d="M29.0358 20.2143C29.2922 20.2143 29.5001 20.0065 29.5001 19.7501C29.5001 19.4936 29.2922 19.2858 29.0358 19.2858" stroke="#252525" stroke-linecap="round" stroke-linejoin="round"/>
</svg>
