<svg width="47" height="46" viewBox="0 0 47 46" fill="none" xmlns="http://www.w3.org/2000/svg">
<path d="M18.5812 35.8559H24.7297C26.1075 35.856 27.4707 35.5732 28.7349 35.0248C29.9989 34.4765 31.1368 33.6744 32.0781 32.6682C33.0195 31.6619 33.7441 30.4731 34.2071 29.1755C34.6701 27.8777 34.8616 26.4986 34.7697 25.1239C34.5441 22.5367 33.3482 20.1307 31.422 18.3889C29.4958 16.6471 26.9821 15.6984 24.3854 15.7334H12.768C12.6726 15.7332 12.5787 15.7574 12.4953 15.8038C12.4119 15.8501 12.3418 15.9171 12.2916 15.9982C12.2414 16.0793 12.2128 16.172 12.2085 16.2673C12.2042 16.3626 12.2244 16.4574 12.2672 16.5427L13.0497 18.1145C13.7003 19.416 14.7009 20.5103 15.9391 21.2746C17.1773 22.0388 18.604 22.4427 20.0591 22.4409H23.3882C24.6651 22.4195 25.9047 22.871 26.8688 23.7084C27.833 24.5458 28.4535 25.7101 28.6111 26.9774C28.6801 27.6757 28.6021 28.3807 28.3823 29.0471C28.1625 29.7135 27.8058 30.3266 27.3349 30.8469C26.8641 31.3671 26.2896 31.7832 25.6484 32.0683C25.0073 32.3534 24.3135 32.5011 23.6118 32.5021H20.817L18.5812 35.8559Z" stroke="#252525" stroke-linecap="round" stroke-linejoin="round"/>
<path d="M19.1401 15.7335C18.6954 15.7335 18.2689 15.5568 17.9544 15.2424C17.6399 14.9279 17.4632 14.5014 17.4632 14.0566C17.4632 13.6119 17.6399 13.1854 17.9544 12.8709C18.2689 12.5564 18.6954 12.3798 19.1401 12.3798H25.2887" stroke="#252525" stroke-linecap="round" stroke-linejoin="round"/>
<path d="M16.9043 15.7335C16.1631 15.7335 15.4522 15.4391 14.9281 14.9149C14.4039 14.3908 14.1095 13.6799 14.1095 12.9387C14.1095 12.1975 14.4039 11.4866 14.9281 10.9625C15.4522 10.4384 16.1631 10.1439 16.9043 10.1439H29.2014" stroke="#252525" stroke-linecap="round" stroke-linejoin="round"/>
<path d="M20.817 32.5023C20.8366 31.5659 20.5826 30.6441 20.0862 29.8498C19.5898 29.0557 18.8725 28.4234 18.0222 28.0306L17.4633 32.5023L12.9916 34.1792C12.9916 34.1792 14.6685 35.8561 18.5812 35.8561" stroke="#252525" stroke-linecap="round" stroke-linejoin="round"/>
<path d="M24.1707 15.7335C24.6914 16.124 25.1139 16.6304 25.405 17.2125C25.6961 17.7946 25.8476 18.4365 25.8476 19.0873C25.8476 19.7381 25.6961 20.38 25.405 20.9621C25.1139 21.5442 24.6914 22.0505 24.1707 22.441" stroke="#252525" stroke-linecap="round" stroke-linejoin="round"/>
<path d="M33.9246 21.7701C33.7574 23.1323 33.0656 24.3756 31.9962 25.2357C31.4457 25.5617 30.8336 25.7697 30.1986 25.8467C29.5635 25.9236 28.9194 25.8679 28.307 25.6829" stroke="#252525" stroke-linecap="round" stroke-linejoin="round"/>
<path d="M26.5575 31.5465C26.5575 31.5465 27.2651 34.3737 28.942 34.9327" stroke="#252525" stroke-linecap="round" stroke-linejoin="round"/>
<path d="M19.4196 18.5283C19.2653 18.5283 19.1401 18.4032 19.1401 18.2488C19.1401 18.0945 19.2653 17.9694 19.4196 17.9694" stroke="#252525"/>
<path d="M19.4196 18.5283C19.574 18.5283 19.6991 18.4032 19.6991 18.2488C19.6991 18.0945 19.574 17.9694 19.4196 17.9694" stroke="#252525"/>
</svg>
