<svg width="46" height="46" viewBox="0 0 46 46" fill="none" xmlns="http://www.w3.org/2000/svg">
<g clip-path="url(#clip0_1414_380)">
<path d="M11.396 33.8975C11.4567 34.0587 11.5512 34.2052 11.673 34.327C11.7948 34.4489 11.9413 34.5433 12.1025 34.604C20.355 37.7007 25.7937 34.7236 31.2334 29.2839L16.7162 14.7677C11.2775 20.2052 8.29827 25.6462 11.396 33.8975Z" stroke="#252525" stroke-linecap="round" stroke-linejoin="round"/>
<path d="M35.5028 13.0594C35.7289 12.8326 35.8558 12.5255 35.8558 12.2053C35.8558 11.8851 35.7289 11.5779 35.5028 11.3512L34.6487 10.4971C34.422 10.271 34.1148 10.144 33.7946 10.144C33.4744 10.144 33.1672 10.271 32.9405 10.4971L30.329 13.1086C28.3266 11.509 25.8234 10.6684 23.2614 10.7353C20.6994 10.8022 18.2434 11.7722 16.3271 13.4741C16.266 13.5289 16.2167 13.5956 16.1821 13.6701C16.1476 13.7446 16.1285 13.8253 16.1261 13.9074C16.1237 13.9895 16.138 14.0712 16.1682 14.1475C16.1983 14.2239 16.2436 14.2934 16.3014 14.3517L31.6482 29.6984C31.7063 29.7567 31.7757 29.8026 31.8522 29.833C31.9287 29.8634 32.0105 29.8778 32.0928 29.8752C32.1751 29.8728 32.2559 29.8533 32.3305 29.8183C32.4049 29.7834 32.4714 29.7334 32.5257 29.6716C34.2278 27.7557 35.1979 25.2997 35.2645 22.7378C35.3313 20.1758 34.4903 17.6728 32.8902 15.6708L35.5028 13.0594Z" stroke="#252525" stroke-linecap="round" stroke-linejoin="round"/>
<path d="M29.428 21.8821C29.2737 21.8821 29.1486 21.757 29.1486 21.6026C29.1486 21.4482 29.2737 21.3231 29.428 21.3231" stroke="#252525"/>
<path d="M29.428 21.8821C29.5824 21.8821 29.7075 21.757 29.7075 21.6026C29.7075 21.4482 29.5824 21.3231 29.428 21.3231" stroke="#252525"/>
<path d="M30.546 25.2358C30.3916 25.2358 30.2665 25.1107 30.2665 24.9564C30.2665 24.802 30.3916 24.6769 30.546 24.6769" stroke="#252525"/>
<path d="M30.546 25.2358C30.7003 25.2358 30.8254 25.1107 30.8254 24.9564C30.8254 24.802 30.7003 24.6769 30.546 24.6769" stroke="#252525"/>
<path d="M32.7818 23C32.6274 23 32.5023 22.8749 32.5023 22.7205C32.5023 22.5661 32.6274 22.441 32.7818 22.441" stroke="#252525"/>
<path d="M32.7818 23C32.9362 23 33.0613 22.8749 33.0613 22.7205C33.0613 22.5661 32.9362 22.441 32.7818 22.441" stroke="#252525"/>
</g>
<defs>
<clipPath id="clip0_1414_380">
<rect width="28" height="28" fill="white" transform="translate(9 9)"/>
</clipPath>
</defs>
</svg>
