<svg width="46" height="46" viewBox="0 0 46 46" fill="none" xmlns="http://www.w3.org/2000/svg">
<g clip-path="url(#clip0_1414_112)">
<path d="M14.6612 21.3682L25.2358 10.9824C28.5896 14.3362 26.3537 19.6463 24.6769 21.3232C26.3537 19.6463 31.6691 17.4104 35.0229 20.7642L24.6318 31.3406C21.8855 34.1358 17.387 34.1557 14.6161 31.3848C11.8449 28.6136 11.8651 24.1144 14.6612 21.3682Z" stroke="#252525" stroke-linecap="round" stroke-linejoin="round"/>
<path d="M32.6133 23.2165C29.8632 25.1638 26.0262 24.9091 23.559 22.4419C21.0942 19.9771 20.8376 16.1454 22.7783 13.396" stroke="#252525" stroke-linecap="round" stroke-linejoin="round"/>
<path d="M18.5299 17.5686C16.3502 20.3332 16.5319 24.3582 19.0874 26.9136C21.6444 29.4706 25.6728 29.6511 28.4377 27.4668" stroke="#252525" stroke-linecap="round" stroke-linejoin="round"/>
<path d="M27.1009 18.8554C26.6602 15.7431 27.7068 9.7224 35.4186 10.5377C36.7405 17.2855 30.4334 19.7918 27.1009 18.8554Z" stroke="#252525" stroke-linecap="round" stroke-linejoin="round"/>
<path d="M10.2585 35.7396L24.7195 21.2787" stroke="#252525" stroke-linecap="round" stroke-linejoin="round"/>
</g>
<defs>
<clipPath id="clip0_1414_112">
<rect width="28" height="28" fill="white" transform="translate(9 9)"/>
</clipPath>
</defs>
</svg>
