<svg width="46" height="46" viewBox="0 0 46 46" fill="none" xmlns="http://www.w3.org/2000/svg">
<path d="M23 35.5766C24.4652 35.5933 25.9165 35.2905 27.2527 34.6892C28.589 34.0878 29.7781 33.2025 30.7373 32.0947C31.6965 30.987 32.4027 29.6835 32.8067 28.275C33.2108 26.8665 33.303 25.3868 33.0769 23.9391C31.902 16.3339 27.3711 10.4235 23 10.4235C18.629 10.4235 14.098 16.3339 12.9231 23.9391C12.697 25.3868 12.7892 26.8665 13.1933 28.275C13.5973 29.6835 14.3035 30.987 15.2627 32.0947C16.2219 33.2025 17.411 34.0878 18.7473 34.6892C20.0835 35.2905 21.5348 35.5933 23 35.5766Z" stroke="#252525" stroke-linecap="round" stroke-linejoin="round"/>
</svg>
