<svg width="46" height="46" viewBox="0 0 46 46" fill="none" xmlns="http://www.w3.org/2000/svg">
<path d="M30.8254 33.6202C30.8254 34.2132 30.5899 34.7819 30.1706 35.2012C29.7513 35.6205 29.1826 35.856 28.5896 35.856H17.4104C16.8174 35.856 16.2488 35.6205 15.8295 35.2012C15.4102 34.7819 15.1746 34.2132 15.1746 33.6202V21.1308C15.1747 20.5379 15.4104 19.9693 15.8297 19.5501L18.5283 16.8514H27.4717L30.1703 19.5501C30.5897 19.9693 30.8253 20.5379 30.8254 21.1308V33.6202Z" stroke="#252525" stroke-linecap="round" stroke-linejoin="round"/>
<path d="M18.5283 13.4977H27.4717V16.8514H18.5283V13.4977Z" stroke="#252525" stroke-linecap="round" stroke-linejoin="round"/>
<path d="M15.3781 20.2052H30.622" stroke="#252525" stroke-linecap="round" stroke-linejoin="round"/>
<path d="M16.2925 13.4977C16.2925 12.6082 16.6458 11.7552 17.2748 11.1262C17.9037 10.4973 18.7568 10.1439 19.6462 10.1439H26.3537C27.2432 10.1439 28.0963 10.4973 28.7252 11.1262C29.3542 11.7552 29.7075 12.6082 29.7075 13.4977H16.2925Z" stroke="#252525" stroke-linecap="round" stroke-linejoin="round"/>
<path d="M15.1981 20.81L12.9388 16.2925" stroke="#252525" stroke-linecap="round" stroke-linejoin="round"/>
<path d="M30.8019 20.81L33.0613 16.2925" stroke="#252525" stroke-linecap="round" stroke-linejoin="round"/>
</svg>
