<svg width="47" height="46" viewBox="0 0 47 46" fill="none" xmlns="http://www.w3.org/2000/svg">
<path d="M14.1005 30.7698L14.9974 28.0791L20.6396 32.439C21.29 32.9415 22.0887 33.2142 22.9107 33.2142H24.0893C24.9112 33.2142 25.71 32.9415 26.3604 32.439L32.0025 28.0791L32.8995 30.7698C33.3003 31.9725 32.4052 33.2144 31.1377 33.2144H15.8623C14.5947 33.2144 13.6997 31.9725 14.1005 30.7698Z" stroke="#252525" stroke-linecap="round" stroke-linejoin="round"/>
<path d="M23.5 12.7858C16.8331 12.7858 11.4286 18.1903 11.4286 24.8572C11.4286 25.15 11.5642 25.4263 11.7959 25.6054L20.6396 32.4392C21.29 32.9417 22.0887 33.2143 22.9107 33.2143H24.0893C24.9112 33.2143 25.71 32.9417 26.3604 32.4392L35.2041 25.6054C35.4357 25.4263 35.5714 25.15 35.5714 24.8572C35.5714 18.1903 30.1669 12.7858 23.5 12.7858Z" stroke="#252525" stroke-linecap="round" stroke-linejoin="round"/>
<path d="M29.4735 14.3655L26.2857 23.9291" stroke="#252525" stroke-linecap="round" stroke-linejoin="round"/>
<path d="M17.5264 14.3655L20.7143 23.9291" stroke="#252525" stroke-linecap="round" stroke-linejoin="round"/>
</svg>
