<svg width="46" height="46" viewBox="0 0 46 46" fill="none" xmlns="http://www.w3.org/2000/svg">
<path d="M25.7948 13.4977V19.6462C25.7948 21.8821 30.8254 24.6768 30.8254 28.0306C30.7835 30.3014 30.4995 32.5612 29.978 34.7716C29.8894 35.0751 29.7077 35.3431 29.4586 35.5376C29.2094 35.7322 28.9054 35.8436 28.5896 35.856H17.4104C17.0945 35.8436 16.7905 35.7322 16.5414 35.5376C16.2922 35.3431 16.1105 35.0751 16.0219 34.7716C15.5005 32.5612 15.2164 30.3014 15.1746 28.0306C15.1746 24.6768 20.2052 21.8821 20.2052 19.6462V13.4977" stroke="#252525" stroke-linecap="round" stroke-linejoin="round"/>
<path d="M25.7948 13.4977H20.2052V10.7029C20.2052 10.5546 20.2641 10.4125 20.3689 10.3076C20.4737 10.2028 20.6159 10.1439 20.7642 10.1439H25.2358C25.3841 10.1439 25.5262 10.2028 25.6311 10.3076C25.7359 10.4125 25.7948 10.5546 25.7948 10.7029V13.4977Z" stroke="#252525" stroke-linecap="round" stroke-linejoin="round"/>
<path d="M15.1746 28.0306H30.8254" stroke="#252525" stroke-linecap="round" stroke-linejoin="round"/>
<path d="M15.5726 32.5023H30.4286" stroke="#252525" stroke-linecap="round" stroke-linejoin="round"/>
</svg>
