<svg width="46" height="46" viewBox="0 0 46 46" fill="none" xmlns="http://www.w3.org/2000/svg">
<g clip-path="url(#clip0_1414_162)">
<path d="M35.1361 10.846C36.1601 11.8712 36.8666 19.7793 31.6035 25.0436C28.2322 28.2422 23.8243 30.1238 19.1823 30.3459L15.6352 26.8009C15.8905 22.1671 17.7743 17.7723 20.9542 14.3921C26.1615 9.18481 34.111 9.8209 35.1361 10.846Z" stroke="#252525" stroke-linecap="round" stroke-linejoin="round"/>
<path d="M19.1823 30.3458L16.8347 35.1629C16.7282 35.3761 16.5632 35.5544 16.3589 35.6771C16.1547 35.7998 15.9197 35.8618 15.6815 35.8557C15.4433 35.8496 15.2118 35.7757 15.0141 35.6427C14.8164 35.5097 14.6607 35.3231 14.5653 35.1048L13.5938 32.7572L10.8561 31.4514C10.6444 31.3502 10.4655 31.1915 10.3396 30.9935C10.2137 30.7956 10.1459 30.5662 10.1439 30.3316C10.142 30.097 10.2059 29.8666 10.3284 29.6665C10.4509 29.4664 10.6272 29.3048 10.8371 29.2L15.6352 26.8009L19.1823 30.3458Z" stroke="#252525" stroke-linecap="round" stroke-linejoin="round"/>
<path d="M33.0199 23.3778C33.0098 23.6629 32.7963 27.1541 28.0642 32.2574C27.9492 32.3814 27.8104 32.4809 27.656 32.5499C27.5017 32.6189 27.3349 32.656 27.1659 32.6589C26.9968 32.6619 26.8289 32.6306 26.6723 32.5669C26.5156 32.5033 26.3734 32.4087 26.2543 32.2887L23.6048 29.6147" stroke="#252525" stroke-linecap="round" stroke-linejoin="round"/>
<path d="M16.0611 23.6808L13.0774 20.6959C12.9026 20.521 12.7833 20.2983 12.7346 20.0559C12.6859 19.8135 12.7099 19.562 12.8035 19.3332C13.4396 17.786 15.3982 14.5865 20.7642 14.582" stroke="#252525" stroke-linecap="round" stroke-linejoin="round"/>
<path d="M28.8937 14.354C29.069 14.5293 29.1884 14.7526 29.2368 14.9957C29.2852 15.2388 29.2604 15.4908 29.1655 15.7198C29.0707 15.9488 28.9101 16.1446 28.704 16.2823C28.4979 16.42 28.2556 16.4936 28.0077 16.4936C27.7598 16.4936 27.5175 16.42 27.3114 16.2823C27.1053 16.1446 26.9447 15.9488 26.8499 15.7198C26.755 15.4908 26.7302 15.2388 26.7786 14.9957C26.827 14.7526 26.9464 14.5293 27.1218 14.354C27.3568 14.1191 27.6754 13.9872 28.0077 13.9872C28.34 13.9872 28.6586 14.1191 28.8937 14.354Z" stroke="#252525" stroke-linecap="round" stroke-linejoin="round"/>
</g>
<defs>
<clipPath id="clip0_1414_162">
<rect width="28" height="28" fill="white" transform="translate(9 9)"/>
</clipPath>
</defs>
</svg>
