<svg width="46" height="46" viewBox="0 0 46 46" fill="none" xmlns="http://www.w3.org/2000/svg">
<path d="M17.4286 31.3572C17.4286 32.8957 16.1814 34.1429 14.6429 34.1429C13.1043 34.1429 11.8571 32.8957 11.8571 31.3572C11.8571 28.5715 14.6429 25.7858 14.6429 25.7858C14.6429 25.7858 17.4286 28.5715 17.4286 31.3572Z" stroke="#252525" stroke-linecap="round" stroke-linejoin="round"/>
<path d="M32.9025 18.0454C32.3763 19.4911 30.7777 20.2365 29.3321 19.7103C27.8863 19.1841 27.1409 17.5856 27.6671 16.1399C28.6199 13.5221 32.1903 11.8572 32.1903 11.8572C32.1903 11.8572 33.8554 15.4276 32.9025 18.0454Z" stroke="#252525" stroke-linecap="round" stroke-linejoin="round"/>
<path d="M25.543 24.049C26.341 25.3643 25.9217 27.0776 24.6063 27.8756C23.291 28.6738 21.5777 28.2543 20.7797 26.939C19.3347 24.5573 20.2714 20.7307 20.2714 20.7307C20.2714 20.7307 24.098 21.6674 25.543 24.049Z" stroke="#252525" stroke-linecap="round" stroke-linejoin="round"/>
<path d="M33.2251 32.8735C32.3875 34.164 30.6622 34.5312 29.3717 33.6936C28.0812 32.8561 27.714 31.1308 28.5516 29.8402C30.0681 27.5036 33.9215 26.6835 33.9215 26.6835C33.9215 26.6835 34.7416 30.5367 33.2251 32.8735Z" stroke="#252525" stroke-linecap="round" stroke-linejoin="round"/>
<path d="M17.3015 18.4827C16.0955 19.4382 14.3434 19.2351 13.388 18.0292C12.4327 16.8233 12.6357 15.0712 13.8416 14.1158C16.0251 12.3859 19.9385 12.8394 19.9385 12.8394C19.9385 12.8394 19.4849 16.7529 17.3015 18.4827Z" stroke="#252525" stroke-linecap="round" stroke-linejoin="round"/>
</svg>
