<svg width="46" height="46" viewBox="0 0 46 46" fill="none" xmlns="http://www.w3.org/2000/svg">
<g clip-path="url(#clip0_1414_314)">
<path d="M33.8695 14.4311C33.0975 13.8696 32.1661 13.5699 31.2115 13.5759C30.2569 13.5818 29.3293 13.8931 28.5643 14.4642C27.7993 15.0352 27.2372 15.8361 26.9602 16.7496C26.6831 17.6631 26.7056 18.6413 27.0245 19.5411C25.9132 19.6677 24.8896 20.2062 24.1558 21.0503C23.4219 21.8944 23.0311 22.983 23.0604 24.1011C21.9642 23.878 20.8243 24.0739 19.8655 24.6501C18.9067 25.2262 18.1987 26.1408 17.8811 27.2134C17.0737 26.7564 16.1442 26.5619 15.2214 26.6567C14.2985 26.7515 13.428 27.131 12.7305 27.7426C12.0329 28.3542 11.5428 29.1676 11.3281 30.0701C11.1134 30.9726 11.1848 31.9196 11.5322 32.7797C11.8797 33.6399 12.4861 34.3707 13.2674 34.8709C14.0487 35.3711 14.9662 35.6159 15.8929 35.5714C16.8195 35.527 17.7094 35.1954 18.4391 34.6226C19.1689 34.0499 19.7025 33.2643 19.966 32.3748C20.655 32.765 21.4352 32.9654 22.227 32.9552C23.0187 32.9451 23.7936 32.7249 24.4724 32.3172C25.1512 31.9095 25.7095 31.3288 26.0903 30.6346C26.4712 29.9404 26.6608 29.1575 26.6399 28.366C27.4157 28.524 28.2195 28.4733 28.9692 28.2189C29.7189 27.9646 30.3877 27.5157 30.9072 26.9183C31.4266 26.3209 31.7781 25.5962 31.9258 24.8184C32.0735 24.0406 32.012 23.2376 31.7477 22.4913C32.643 22.3895 33.4867 22.0197 34.1681 21.4302C34.8496 20.8407 35.3371 20.059 35.5667 19.1877C35.7963 18.3164 35.7573 17.3961 35.4549 16.5473C35.1524 15.6985 34.6006 14.9609 33.8717 14.4311H33.8695Z" stroke="#252525" stroke-linecap="round" stroke-linejoin="round"/>
<path d="M33.0065 10.4235C33.0078 11.5563 32.8574 12.6843 32.5593 13.7772" stroke="#252525" stroke-linecap="round" stroke-linejoin="round"/>
<path d="M25.0122 14.2601C24.4057 14.3976 23.8418 14.6808 23.3692 15.0852C22.8967 15.4895 22.5298 16.0029 22.3002 16.5809C21.5116 16.0355 20.5473 15.8053 19.5974 15.9359C18.6475 16.0665 17.7811 16.5483 17.1689 17.2863C16.6863 16.6543 16.019 16.188 15.2595 15.9521C14.5 15.7162 13.686 15.7224 12.9302 15.9697C12.1744 16.217 11.5142 16.6933 11.0411 17.3326C10.568 17.9718 10.3055 18.7424 10.2898 19.5375C10.2742 20.3326 10.5062 21.1129 10.9538 21.7703C11.4013 22.4276 12.0422 22.9295 12.7878 23.2064C13.5333 23.4833 14.3464 23.5215 15.1146 23.3156C15.8827 23.1098 16.5679 22.6702 17.075 22.0576" stroke="#252525" stroke-linecap="round" stroke-linejoin="round"/>
</g>
<defs>
<clipPath id="clip0_1414_314">
<rect width="28" height="28" fill="white" transform="translate(9 9)"/>
</clipPath>
</defs>
</svg>
