<svg width="46" height="46" viewBox="0 0 46 46" fill="none" xmlns="http://www.w3.org/2000/svg">
<path d="M35.0714 23C35.0714 16.3332 29.6669 10.9286 23 10.9286C16.3331 10.9286 10.9286 16.3332 10.9286 23C10.9286 29.667 16.3331 35.0714 23 35.0714" stroke="#252525" stroke-linecap="round" stroke-linejoin="round"/>
<path d="M15.0581 25.4762C15.313 26.1976 16.0009 26.7143 16.8096 26.7143H18.0476C19.0733 26.7143 19.9048 25.8822 19.9048 24.8565C19.9048 23.9838 19.2971 23.2282 18.4445 23.0417L16.2559 22.563C15.4949 22.3965 14.9524 21.7226 14.9524 20.9435C14.9524 20.028 15.6946 19.2858 16.6102 19.2858H18.0476C18.5977 19.2858 19.0919 19.5249 19.4319 19.9048C19.5918 20.0834 19.7176 20.2932 19.7991 20.5239" stroke="#252525" stroke-linecap="round" stroke-linejoin="round"/>
<path d="M22.381 21.1429V24.8572C22.381 25.8829 23.2124 26.7143 24.2381 26.7143H25.4762C26.5019 26.7143 27.3334 25.8829 27.3334 24.8572V21.1429C27.3334 20.1172 26.5019 19.2858 25.4762 19.2858H24.2381C23.2124 19.2858 22.381 20.1172 22.381 21.1429Z" stroke="#252525" stroke-linecap="round" stroke-linejoin="round"/>
<path d="M34.1428 35.0714H29.1904V34.0162C29.1904 33.2783 29.6272 32.6105 30.3032 32.3147L33.0588 31.109C33.7174 30.821 34.1428 30.1704 34.1428 29.4519C34.1428 28.4527 33.3329 27.6428 32.3338 27.6428H31.0475C30.2389 27.6428 29.5511 28.1596 29.2961 28.881" stroke="#252525" stroke-linecap="round" stroke-linejoin="round"/>
</svg>
